<svg xmlns="http://www.w3.org/2000/svg" viewBox="-96 -96 192 192" width="256" height="256">
  <!-- Outer hexagon -->
  <polygon points="0,-88 76,-44 76,44 0,88 -76,44 -76,-44"
    fill="#0f0f0f" stroke="#2a2a2a" stroke-width="1.5"/>
  <!-- Inner ring -->
  <polygon points="0,-76 66,-38 66,38 0,76 -66,38 -66,-38"
    fill="none" stroke="#c8a96e" stroke-width="0.8" opacity="0.5"/>
  <!-- T crossbar -->
  <rect x="-34" y="-30" width="68" height="10" rx="2" fill="#c8a96e"/>
  <!-- T stem -->
  <rect x="-7" y="-22" width="14" height="52" rx="2" fill="#c8a96e"/>
  <!-- Serifs bottom -->
  <rect x="-16" y="26" width="18" height="4" rx="1.5" fill="#c8a96e"/>
  <rect x="-2" y="26" width="18" height="4" rx="1.5" fill="#c8a96e"/>
  <!-- Serifs top -->
  <rect x="-34" y="-30" width="10" height="4" rx="1.5" fill="#e8c882"/>
  <rect x="24" y="-30" width="10" height="4" rx="1.5" fill="#e8c882"/>
  <!-- Corner dots -->
  <circle cx="0" cy="-82" r="2.5" fill="#c8a96e" opacity="0.7"/>
  <circle cx="0" cy="82" r="2.5" fill="#c8a96e" opacity="0.7"/>
  <circle cx="-71" cy="-41" r="2.5" fill="#c8a96e" opacity="0.7"/>
  <circle cx="71" cy="-41" r="2.5" fill="#c8a96e" opacity="0.7"/>
  <circle cx="-71" cy="41" r="2.5" fill="#c8a96e" opacity="0.7"/>
  <circle cx="71" cy="41" r="2.5" fill="#c8a96e" opacity="0.7"/>
</svg>
